<svg width="255" height="57" viewBox="0 0 255 57" fill="none" xmlns="http://www.w3.org/2000/svg">
<path d="M14.1065 11.0586C14.0561 10.9303 14.0345 10.7622 14.0345 10.5575L2.1672 10.9975C1.76443 10.9975 1.4192 10.808 1.13151 10.423C0.775487 10.0503 0.574102 9.5889 0.527352 9.04197L0.00950497 4.06765C-0.0372449 3.43211 0.088621 2.8638 0.383506 2.35659C0.631641 1.90132 0.976872 1.65383 1.4192 1.61105L5.27428 1.4155C7.84194 1.29328 10.9346 1.14662 14.5524 0.975511C18.109 0.804404 21.493 0.657741 24.7079 0.535522C25.197 0.535522 25.8875 0.495801 26.7793 0.413303L29.0809 0.278862L33.0798 0.156643C34.6621 0.0772009 35.9747 0.0344238 37.0212 0.0344238H39.5385L39.8262 2.23437L40.2721 5.32651L40.9482 9.86084L41.8401 16.0329C41.8868 16.4087 41.6602 16.7662 41.164 17.1084C40.6245 17.4445 39.9593 17.6309 39.1645 17.6706L33.0079 17.9273C31.5299 18.0098 30.692 17.6706 30.4906 16.9129C30.2388 15.2751 29.944 13.2402 29.5987 10.8019C29.5484 10.6797 29.5268 10.533 29.5268 10.3619C29.5268 10.3222 29.5268 10.2611 29.5268 10.1786C29.4764 10.09 29.4549 10.0258 29.4549 9.98306V9.86084H29.3829L25.3696 10.0442C25.3696 10.2581 25.3912 10.4292 25.4416 10.5575C25.8443 13.8757 26.4125 19.6078 27.1533 27.7537C27.8438 36.1135 28.2645 41.9311 28.4192 45.2066C28.4192 45.3716 28.4408 45.5794 28.4911 45.8299C28.4911 46.1232 28.4911 46.3371 28.4911 46.4655C28.5378 47.5165 28.563 49.0504 28.563 51.0609L28.6349 53.2731C28.5846 53.6886 28.3113 54.043 27.815 54.3364C27.3259 54.6297 26.7829 54.8008 26.1896 54.8497L20.2631 55.033C19.5151 55.033 18.8714 54.868 18.3355 54.5319C17.7889 54.2386 17.5156 53.8811 17.5156 53.4564V51.3176C17.5156 51.1465 17.5156 50.8348 17.5156 50.3765C17.4653 49.9548 17.4437 49.6157 17.4437 49.3621C17.4437 48.7754 17.3898 47.5593 17.2855 45.7077C16.8431 38.9857 16.372 33.2108 15.8758 28.377C15.135 20.2311 14.5452 14.4563 14.1065 11.0586Z" fill="#F4DDB0"/>
<path d="M43.3924 4.62986L43.0184 2.49103C42.9249 1.90438 43.1191 1.3605 43.6081 0.853292C44.2015 0.349138 44.8452 0.0955334 45.5357 0.0955334C46.3772 0.0955334 47.6394 0.0772009 49.3188 0.0344238C51.0054 0.0344238 52.2893 0.0344238 53.1739 0.0344238H70.4499C70.5542 0.0344238 70.68 0.0344238 70.8239 0.0344238C70.9749 0.0772009 71.0756 0.0955334 71.126 0.0955334L71.7157 0.217752C71.8092 0.217752 71.9818 0.239141 72.2336 0.278862C72.435 0.370527 72.5824 0.413303 72.6795 0.413303L73.6433 0.657741L74.1611 0.853292L74.0892 0.792182C74.4812 0.914401 75.0997 1.20773 75.9448 1.67216L76.7647 2.23437L77.1244 2.49103L77.3545 2.67436L77.9443 3.3099L78.1744 3.62767L78.4621 3.93321L78.9081 4.44653C78.9081 4.52903 78.9296 4.59014 78.98 4.62986L79.354 5.38762V5.32651L79.8718 6.45093C79.8718 6.49981 79.8934 6.56703 79.9437 6.64648V6.7687L80.102 7.34313L80.1739 7.64867L80.3897 8.7242L80.4616 9.79973C80.6126 10.9333 80.6917 12.1311 80.6917 13.393C80.6917 16.2865 80.6666 18.4712 80.6198 19.9439C80.6198 22.5838 80.5407 24.851 80.3897 26.7393C80.2926 28.2548 80.1955 29.3487 80.102 30.0148C80.102 30.1859 80.102 30.4609 80.102 30.8336C80.0444 31.2186 80.0157 31.4906 80.0157 31.6525L79.9437 32.4836L79.7999 33.8647L79.6561 34.3658L79.354 35.2457H79.4259C79.3288 35.588 79.0555 36.0524 78.606 36.639L78.0881 37.1401L77.6422 37.6412L77.2826 37.8979L76.4627 38.5212L75.801 38.9001L74.9091 39.2179L73.5714 39.719L72.9097 39.9145H72.9816C72.8269 40.0367 72.6004 40.0978 72.3055 40.0978L71.4137 40.3545C70.9713 40.437 70.4067 40.5439 69.7163 40.6723C69.8098 41.0878 69.9608 41.5278 70.1622 41.9922H70.0903L70.752 43.6911C70.903 44.0669 71.1547 44.5527 71.5 45.1455V45.0844C71.9387 45.9246 72.4565 46.4899 73.0535 46.7832C73.4455 47.0766 74.0892 47.2843 74.981 47.4065C75.4701 47.5379 76.0635 47.6021 76.7647 47.6021C76.9553 47.6449 77.1028 47.6632 77.2107 47.6632H77.4264C78.1636 47.8282 78.5341 48.5798 78.5341 49.9243C78.4837 50.682 78.4621 51.4398 78.4621 52.1975L78.3183 54.5319C78.2212 55.7449 77.8004 56.353 77.0524 56.353C76.6569 56.353 76.0923 56.3316 75.355 56.2919C73.9166 56.2094 72.7011 56.023 71.7157 55.7297V55.7908C69.7378 55.3263 67.9362 54.5289 66.3071 53.3953C64.6169 52.222 63.2576 50.6912 62.2219 48.7998C61.5782 47.709 60.9344 46.1538 60.2943 44.1311C60.1001 43.7155 59.9059 42.9639 59.7046 41.87L59.5607 41.6134C59.5032 41.5339 59.4744 41.427 59.4744 41.2956H57.4749C57.4749 41.5492 57.4749 41.8884 57.4749 42.31C57.4246 42.7683 57.403 43.1228 57.403 43.3733V45.6466C57.3527 47.1132 57.3311 48.919 57.3311 51.0609L57.2592 53.0775C57.2592 53.4625 57.0614 53.7986 56.6694 54.0919C56.2163 54.3853 55.6697 54.5533 55.0295 54.593L49.8367 54.8497C49.1462 54.8497 48.5565 54.6786 48.0674 54.3364C47.5675 54.043 47.3194 53.6886 47.3194 53.2731V51.122C47.3194 48.9801 47.341 47.156 47.3913 45.6466C47.3913 45.3533 47.4129 44.788 47.4632 43.9477C47.4632 43.1105 47.4632 42.5178 47.4632 42.1756C47.4632 41.7203 47.492 39.8748 47.5495 36.639C47.5963 33.4063 47.643 30.8642 47.6934 29.0126C47.884 18.0067 48.0314 11.2236 48.1393 8.66309H46.0535C45.4098 8.66309 44.8668 8.47671 44.4281 8.10088C43.9857 7.75867 43.7376 7.33702 43.6801 6.82981L43.3924 4.62986ZM69.7163 31.7869L70.004 29.3303L70.2341 26.1771C70.3276 24.7532 70.4283 22.6541 70.5362 19.8828C70.5829 18.6209 70.6081 16.4973 70.6081 13.5152C70.6081 13.3441 70.6081 13.0935 70.6081 12.7574C70.5578 12.4244 70.5362 12.1922 70.5362 12.0608C70.5362 11.4344 70.5074 10.9547 70.4499 10.6186C70.3528 9.73251 70.2557 9.12141 70.1622 8.78531C70.2089 8.78531 70.2341 8.76698 70.2341 8.7242C70.1838 8.7242 70.1082 8.70587 70.004 8.66309H69.932C69.7882 8.62337 69.6156 8.60198 69.4142 8.60198H69.0402L68.6806 8.54087H61.2581L58.3668 8.60198C58.3164 10.8691 58.2229 14.2913 58.0791 18.8684C57.9245 23.4883 57.8238 26.9562 57.777 29.2692C57.777 29.4739 57.777 29.7887 57.777 30.2103C57.7267 30.6748 57.7051 31.0353 57.7051 31.2858V32.5447C58 32.5447 58.3956 32.5447 58.8846 32.5447C59.3341 32.5875 59.6794 32.6058 59.9203 32.6058C60.8122 32.6058 62.1499 32.5661 63.9336 32.4836C66.4078 32.3125 68.1627 32.0803 69.1984 31.7869L69.1265 31.8481L69.7163 31.7869Z" fill="#F4DDB0"/>
<path d="M103.532 53.3342C102.043 53.2945 100.188 53.4014 97.9653 53.6519C95.786 53.8567 93.8369 54.1286 92.1107 54.4708L90.2551 54.8497L89.6653 54.9719C89.3668 55.0514 89.0468 54.9291 88.7016 54.593C88.3563 54.2997 88.083 53.8597 87.8816 53.2731L87.2919 51.122L86.6158 48.861C86.1735 47.4371 86.3209 46.6366 87.0617 46.4655C87.3098 46.386 87.6083 46.3005 87.9536 46.2088C88.0471 46.2088 88.1477 46.1905 88.2556 46.1477H88.1837L90.1832 45.7077L91.2189 45.5244H91.2908V44.9499C91.2908 44.8277 91.2908 44.6413 91.2908 44.3877C91.2404 44.1372 91.2189 43.9691 91.2189 43.8866C91.0175 39.8137 90.6183 34.4147 90.0249 27.6926C89.2841 20.6772 88.6944 15.2996 88.2556 11.5597L88.0974 9.92195C87.5112 9.92195 86.8675 9.88223 86.1699 9.79973H84.9184L84.7602 9.73862C84.4149 9.61029 84.0445 9.54307 83.6525 9.54307C83.4008 9.54307 83.1815 9.50335 82.9909 9.42085L82.7607 9.35974L82.099 9.10308C81.6027 8.68143 81.5236 7.98783 81.8689 7.02536C82.2141 6.2676 82.5341 5.55567 82.8326 4.88652L83.7964 2.61325C84.4365 1.35133 85.0083 0.718851 85.5082 0.718851C85.6017 0.767738 85.7275 0.792182 85.8822 0.792182L87.4357 0.975511C89.3129 1.05801 91.1182 1.01829 92.8443 0.853292C95.1171 0.724961 97.0447 0.532467 98.627 0.278862L100.339 0.0955334H100.411L100.555 0.0344238H101.446C101.993 0.0772009 102.414 0.789127 102.712 2.17326L103.302 7.02536C103.395 8.29032 103.122 8.96253 102.482 9.04197C102.338 9.08475 101.349 9.21002 99.5188 9.42085L99.677 9.35974C99.3786 9.44224 99.1053 9.48196 98.8571 9.48196L98.929 10.9975C99.4757 15.4065 100.015 20.7811 100.555 27.1182C101.101 33.3758 101.497 38.7962 101.748 43.3733C101.795 43.5444 101.82 43.8194 101.82 44.1922C101.971 44.1922 102.417 44.1922 103.158 44.1922C103.895 44.235 104.341 44.2533 104.496 44.2533H105.158C105.309 44.3022 105.607 44.3266 106.049 44.3266L107.315 44.51L108.351 44.7055C108.696 44.788 108.916 45.0813 109.013 45.5855C109.106 46.1324 109.034 46.6793 108.797 47.2232C108.797 47.3882 108.473 48.1399 107.833 49.4843H107.905L107.013 51.8187C106.859 52.2434 106.686 52.6009 106.495 52.8942C106.244 53.1875 106.021 53.3769 105.819 53.4564C105.625 53.5389 105.481 53.5389 105.388 53.4564C105.388 53.4992 105.186 53.4992 104.784 53.4564C104.733 53.4564 104.686 53.4381 104.64 53.3953C104.589 53.3953 104.543 53.3953 104.496 53.3953C104.197 53.3953 103.996 53.3769 103.892 53.3342H103.532Z" fill="#F4DDB0"/>
<path d="M115.384 51.562L115.097 47.981L114.867 46.0866C114.626 43.1044 114.306 37.5404 113.903 29.3915C113.662 24.3499 113.442 18.8439 113.241 12.8797C113.241 12.5863 113.241 12.1463 113.241 11.5597C113.191 10.973 113.169 10.5544 113.169 10.3008V9.10308L111.083 9.04197C110.299 8.96253 109.904 8.29032 109.904 7.02536L109.976 2.29548C109.976 1.6691 110.127 1.12217 110.422 0.657741C110.717 0.242196 111.062 0.0344238 111.457 0.0344238H116.276C118.153 0.0344238 119.369 0.0558124 119.916 0.0955334H119.844L126.878 0.278862L137.407 0.657741C137.609 0.657741 138.004 0.657741 138.601 0.657741C139.148 0.700518 139.493 0.718851 139.637 0.718851H140.975L142.154 0.792182C142.557 0.792182 142.877 1.02134 143.118 1.47661C143.366 1.98382 143.442 2.54908 143.348 3.17545L142.902 8.16199C142.805 9.4178 142.334 10.0442 141.492 10.0442C140.205 10.0044 138.601 9.94334 136.674 9.86084L126.964 9.54307H126.144C125.346 9.46363 124.655 9.42085 124.073 9.42085V10.5575C124.073 10.8111 124.094 11.2114 124.145 11.7552C124.145 12.3419 124.145 12.7819 124.145 13.0752L124.36 20.1272L131.337 19.6873C131.574 19.6873 131.819 19.9195 132.071 20.3839C132.272 20.8911 132.373 21.435 132.373 22.0216L132.229 27.0571C132.229 27.5643 132.128 28.0287 131.927 28.4504C131.725 28.8659 131.502 29.0737 131.265 29.0737L127.928 29.2692C126.439 29.3517 125.374 29.3915 124.734 29.3915C124.936 34.0113 125.231 39.3248 125.626 45.3288L125.842 48.4821C125.946 49.2398 126 49.9548 126 50.6209L126.216 52.5764C126.263 53.0011 126.09 53.3586 125.698 53.6519C125.303 53.988 124.785 54.1958 124.145 54.2753L118.506 55.033C117.862 55.1125 117.269 55.0086 116.722 54.7152C116.125 54.4647 115.78 54.1286 115.686 53.7131C115.636 53.1692 115.535 52.4511 115.384 51.562Z" fill="#F4DDB0"/>
<path d="M175.826 34.4269C177.254 34.6408 177.969 35.3985 177.969 36.7002L178.128 55.0941L151.876 53.7131L147.272 53.4564C147.129 53.4564 146.931 53.4381 146.683 53.3953C146.431 53.3953 146.237 53.3953 146.093 53.3953H145.575L145.273 53.3342L144.237 53.2731L144.525 50.6209C144.525 50.2054 144.579 49.5546 144.683 48.6654C144.78 47.7854 144.849 47.1377 144.899 46.7221L145.129 44.7055C145.129 44.6169 145.151 44.4458 145.201 44.1922C145.201 43.9416 145.201 43.7736 145.201 43.6911L145.647 35.5024C145.942 26.6782 146.14 15.6968 146.237 2.55215C146.237 2.00827 146.456 1.52245 146.898 1.09774C147.348 0.724971 147.895 0.495811 148.538 0.413313L154.019 0.0344337C154.709 -0.054175 155.328 0.113876 155.874 0.535532C156.421 0.999965 156.694 1.56828 156.694 2.23438C156.694 15.8435 156.522 26.9532 156.177 35.5635C156.069 38.7993 155.921 41.6134 155.731 44.0089C155.731 44.0914 155.731 44.238 155.731 44.4489C155.68 44.6627 155.659 44.8094 155.659 44.8888H156.248L158.622 45.0111L163.513 45.2677L167.44 45.451V45.0111L167.368 43.2511L167.296 36.138C167.296 35.5452 167.591 35.0196 168.188 34.5613C168.781 34.1397 169.4 33.9258 170.043 33.9258L175.826 34.4269Z" fill="#F4DDB0"/>
<path d="M200.891 53.3342C199.402 53.2945 197.547 53.4014 195.324 53.6519C193.145 53.8567 191.196 54.1286 189.47 54.4708L187.614 54.8497L187.024 54.9719C186.726 55.0514 186.406 54.9291 186.06 54.593C185.715 54.2997 185.442 53.8597 185.241 53.2731L184.651 51.122L183.975 48.861C183.532 47.4371 183.68 46.6366 184.421 46.4655C184.669 46.386 184.967 46.3005 185.312 46.2088C185.406 46.2088 185.507 46.1905 185.615 46.1477H185.543L187.542 45.7077L188.578 45.5244H188.65V44.9499C188.65 44.8277 188.65 44.6413 188.65 44.3877C188.599 44.1372 188.578 43.9691 188.578 43.8866C188.376 39.8137 187.977 34.4147 187.384 27.6926C186.643 20.6772 186.053 15.2996 185.615 11.5597L185.456 9.92195C184.87 9.92195 184.226 9.88223 183.529 9.79973H182.277L182.119 9.73862C181.774 9.61029 181.403 9.54307 181.011 9.54307C180.76 9.54307 180.54 9.50335 180.35 9.42085L180.12 9.35974L179.458 9.10308C178.962 8.68143 178.883 7.98783 179.228 7.02536C179.573 6.2676 179.893 5.55567 180.192 4.88652L181.155 2.61325C181.795 1.35133 182.367 0.718851 182.867 0.718851C182.961 0.767738 183.086 0.792182 183.241 0.792182L184.795 0.975511C186.672 1.05801 188.477 1.01829 190.203 0.853292C192.476 0.724961 194.404 0.532467 195.986 0.278862L197.698 0.0955334H197.77L197.913 0.0344238H198.805C199.352 0.0772009 199.773 0.789127 200.071 2.17326L200.661 7.02536C200.754 8.29032 200.481 8.96253 199.841 9.04197C199.697 9.08475 198.708 9.21002 196.878 9.42085L197.036 9.35974C196.737 9.44224 196.464 9.48196 196.216 9.48196L196.288 10.9975C196.835 15.4065 197.374 20.7811 197.913 27.1182C198.46 33.3758 198.856 38.7962 199.107 43.3733C199.154 43.5444 199.179 43.8194 199.179 44.1922C199.33 44.1922 199.776 44.1922 200.517 44.1922C201.254 44.235 201.7 44.2533 201.855 44.2533H202.516C202.668 44.3022 202.966 44.3266 203.408 44.3266L204.674 44.51L205.71 44.7055C206.055 44.788 206.274 45.0813 206.372 45.5855C206.465 46.1324 206.393 46.6793 206.156 47.2232C206.156 47.3882 205.832 48.1399 205.192 49.4843H205.264L204.372 51.8187C204.217 52.2434 204.045 52.6009 203.854 52.8942C203.603 53.1875 203.38 53.3769 203.178 53.4564C202.984 53.5389 202.84 53.5389 202.747 53.4564C202.747 53.4992 202.545 53.4992 202.142 53.4564C202.092 53.4564 202.045 53.4381 201.999 53.3953C201.948 53.3953 201.902 53.3953 201.855 53.3953C201.556 53.3953 201.355 53.3769 201.251 53.3342H200.891Z" fill="#F4DDB0"/>
<path d="M253.02 2.61329C253.66 2.90662 254.103 3.32827 254.344 3.87215C254.592 4.41908 254.545 4.92323 254.2 5.38767L239.887 24.7227C240.182 25.3583 240.455 25.8441 240.707 26.1771C244.857 33.9503 247.874 39.7282 249.755 43.5078C251.183 46.2394 252.146 48.2102 252.646 49.4232V49.3621L253.092 50.4376L253.38 51.1954L253.452 51.3787C253.509 51.4612 253.56 51.5682 253.61 51.6965L253.682 51.8798L253.754 52.0754C253.847 52.4115 253.847 52.7445 253.754 53.0776V53.2731L253.682 53.3953L253.61 53.4564V53.652L253.538 53.7131C253.038 54.3823 252.344 54.7153 251.452 54.7153C250.417 54.6756 249.428 54.697 248.489 54.7764L245.67 55.0942C245.324 55.0942 245.101 55.1125 245.008 55.1553C244.612 55.1553 244.318 55.1339 244.116 55.0942C243.519 54.8834 243.174 54.6114 243.08 54.2753L242.85 53.7742V53.8353L242.189 52.3198C240.808 49.3804 239.916 47.5349 239.513 46.7833C237.632 43.0037 235.435 38.8024 232.925 34.1825L216.757 56.1697C216.411 56.5425 215.915 56.7502 215.275 56.793C214.574 56.8327 213.901 56.6647 213.261 56.2919L208.529 53.212C208.029 52.9126 207.709 52.5123 207.565 52.0143C207.363 51.5101 207.389 51.0671 207.637 50.6821L227.502 24.1605L217.202 5.50988C217.001 5.13712 217.023 4.69713 217.274 4.18992C217.523 3.72549 217.94 3.36799 218.526 3.11439H218.454L223.503 0.853336C224.143 0.511123 224.812 0.385848 225.502 0.474457C226.143 0.596676 226.567 0.91139 226.768 1.41554C228.84 4.98434 231.407 9.45756 234.478 14.8352L244.936 0.718895C245.231 0.346127 245.673 0.116966 246.259 0.0344681C246.853 -0.0541405 247.446 0.0283576 248.043 0.278906C248.291 0.410292 249.036 0.767783 250.273 1.35443C251.459 1.94109 252.377 2.36274 253.02 2.61329Z" fill="#F4DDB0"/>
</svg>
